<svg width="35" height="44" viewBox="0 0 35 44" fill="none" xmlns="http://www.w3.org/2000/svg">
<line y1="-1" x2="41.3531" y2="-1" transform="matrix(0.651023 0.759058 0.772695 -0.634778 2 7.35089)" stroke="#272722" stroke-width="2"/>
<line y1="-1" x2="41.3531" y2="-1" transform="matrix(0.651023 0.759058 0.772695 -0.634778 7.6734 4.70532)" stroke="#272722" stroke-width="2"/>
<path d="M19.9 14.55V26.8C19.9 28.5 19.4083 29.825 18.425 30.775C17.4417 31.7083 16.125 32.175 14.475 32.175C12.8083 32.175 11.4583 31.6917 10.425 30.725C9.40833 29.7583 8.9 28.4083 8.9 26.675H12.4C12.4167 27.425 12.5917 28.0083 12.925 28.425C13.275 28.8417 13.775 29.05 14.425 29.05C15.0583 29.05 15.5417 28.85 15.875 28.45C16.2083 28.05 16.375 27.5 16.375 26.8V14.55H19.9Z" fill="#FFFFEE"/>
</svg>
