<svg width="1440" height="827" viewBox="0 0 1440 827" fill="none" xmlns="http://www.w3.org/2000/svg">
<line x1="69.5001" y1="0.999939" x2="69.5001" y2="827" stroke="#FFFFEE"/>
<line x1="543.5" y1="0.999939" x2="543.5" y2="827" stroke="#FFFFEE"/>
<line x1="1017.5" y1="0.999939" x2="1017.5" y2="827" stroke="#FFFFEE"/>
<line x1="304.5" y1="0.999939" x2="304.5" y2="827" stroke="#FFFFEE"/>
<line x1="778.5" y1="0.999939" x2="778.5" y2="827" stroke="#FFFFEE"/>
<line x1="1252.5" y1="0.999939" x2="1252.5" y2="827" stroke="#FFFFEE"/>
<line x1="187.5" y1="0.999939" x2="187.5" y2="827" stroke="#FFFFEE"/>
<line x1="661.5" y1="0.999939" x2="661.5" y2="827" stroke="#FFFFEE"/>
<line x1="1135.5" y1="0.999939" x2="1135.5" y2="827" stroke="#FFFFEE"/>
<line x1="421.5" y1="0.999939" x2="421.5" y2="827" stroke="#FFFFEE"/>
<line x1="895.5" y1="0.999939" x2="895.5" y2="827" stroke="#FFFFEE"/>
<line x1="1369.5" y1="0.999939" x2="1369.5" y2="827" stroke="#FFFFEE"/>
<line x1="1507" y1="239.5" x2="-16" y2="239.5" stroke="#FFFFEE"/>
<line x1="1507" y1="713.5" x2="-16" y2="713.5" stroke="#FFFFEE"/>
<line x1="1507" y1="0.5" x2="-16" y2="0.499867" stroke="#FFFFEE"/>
<line x1="1507" y1="474.5" x2="-16" y2="474.5" stroke="#FFFFEE"/>
<line x1="1507" y1="357.5" x2="-16" y2="357.5" stroke="#FFFFEE"/>
<line x1="1507" y1="826.5" x2="-16" y2="826.5" stroke="#FFFFEE"/>
<line x1="1507" y1="117.5" x2="-16" y2="117.5" stroke="#FFFFEE"/>
<line x1="1507" y1="591.5" x2="-16" y2="591.5" stroke="#FFFFEE"/>
</svg>
