<svg width="221" height="222" viewBox="0 0 221 222" fill="none" xmlns="http://www.w3.org/2000/svg">
<path fill-rule="evenodd" clip-rule="evenodd" d="M189.053 119.95L189.05 120.729L189.178 121.523L189.435 122.338L189.82 123.175L190.329 124.04L190.959 124.936L191.707 125.865L192.565 126.831L193.526 127.836L194.582 128.883L195.721 129.971L196.931 131.101L198.197 132.272L199.499 133.483L200.818 134.73L202.13 136.007L203.41 137.308L204.631 138.626L205.764 139.951L206.78 141.271L207.65 142.575L208.347 143.849L208.847 145.08L209.13 146.255L209.181 147.363L208.992 148.392L208.56 149.334L207.891 150.183L206.995 150.935L205.889 151.59L204.597 152.148L203.143 152.616L201.556 153L199.866 153.308L198.102 153.551L196.294 153.738L194.468 153.883L192.648 153.995L190.857 154.087L189.114 154.169L187.434 154.252L185.831 154.344L184.316 154.456L182.896 154.594L181.58 154.766L180.37 154.98L179.271 155.24L178.284 155.553L177.409 155.924L176.648 156.358L175.998 156.858L175.459 157.429L175.029 158.075L174.705 158.798L174.484 159.602L174.363 160.489L174.338 161.462L174.405 162.521L174.558 163.668L174.791 164.902L175.096 166.223L175.467 167.628L175.892 169.112L176.362 170.671L176.864 172.297L177.383 173.979L177.906 175.705L178.413 177.461L178.888 179.229L179.31 180.989L179.66 182.719L179.917 184.395L180.063 185.993L180.081 187.488L179.953 188.856L179.669 190.074L179.22 191.124L178.603 191.99L177.817 192.661L176.869 193.133L175.768 193.407L174.529 193.488L173.169 193.387L171.708 193.12L170.166 192.707L168.564 192.168L166.924 191.527L165.267 190.808L163.609 190.034L161.967 189.228L160.356 188.411L158.787 187.603L157.271 186.821L155.813 186.081L154.421 185.397L153.098 184.78L151.845 184.241L150.665 183.788L149.557 183.429L148.52 183.169L147.553 183.015L146.653 182.969L145.818 183.036L145.044 183.219L144.329 183.52L143.668 183.941L143.057 184.483L142.493 185.147L141.972 185.933L141.487 186.84L141.036 187.867L140.612 189.012L140.209 190.269L139.823 191.634L139.448 193.098L139.075 194.653L138.7 196.287L138.314 197.985L137.911 199.729L137.484 201.5L137.024 203.273L136.525 205.023L135.981 206.722L135.386 208.34L134.734 209.845L134.023 211.207L133.251 212.397L132.418 213.387L131.525 214.156L130.576 214.686L129.577 214.966L128.533 214.992L127.454 214.767L126.349 214.3L125.225 213.609L124.093 212.714L122.962 211.642L121.84 210.421L120.733 209.081L119.648 207.654L118.589 206.168L117.559 204.654L116.561 203.136L115.595 201.639L114.661 200.184L113.758 198.789L112.884 197.469L112.038 196.239L111.215 195.108L110.413 194.085L109.627 193.177L108.855 192.389L108.093 191.726L107.335 191.19L106.579 190.783L105.82 190.508L105.053 190.363L104.276 190.35L103.482 190.468L102.67 190.715L101.834 191.089L100.972 191.589L100.079 192.21L99.1522 192.948L98.1891 193.797L97.187 194.751L96.1441 195.799L95.0594 196.933L93.9325 198.138L92.7642 199.399L91.5566 200.699L90.3128 202.017L89.0378 203.331L87.7378 204.615L86.4209 205.842L85.0965 206.983L83.7756 208.009L82.4703 208.892L81.1935 209.603L79.9584 210.12L78.778 210.421L77.6644 210.491L76.6286 210.321L75.6792 209.909L74.8228 209.258L74.063 208.379L73.4009 207.289L72.8347 206.011L72.3598 204.569L71.9698 202.991L71.656 201.308L71.4086 199.55L71.2169 197.744L71.0694 195.918L70.9547 194.097L70.8615 192.303L70.779 190.555L70.6969 188.87L70.6055 187.26L70.496 185.738L70.3603 184.311L70.1909 182.986L69.981 181.767L69.7245 180.659L69.4158 179.663L69.0496 178.78L68.6213 178.009L68.1264 177.351L67.5612 176.803L66.9217 176.364L66.2047 176.032L65.4073 175.803L64.5268 175.674L63.5611 175.642L62.5087 175.701L61.3687 175.848L60.1412 176.074L58.8273 176.374L57.4292 176.74L55.9508 177.161L54.3975 177.628L52.7771 178.128L51.0991 178.647L49.3757 179.169L47.6216 179.679L45.854 180.156L44.0927 180.583L42.3594 180.94L40.6778 181.205L39.0725 181.361L37.5684 181.389L36.1897 181.274L34.9588 181.003L33.8952 180.567L33.0144 179.963L32.3271 179.19L31.839 178.255L31.5499 177.166L31.4541 175.938L31.5409 174.587L31.795 173.132L32.1975 171.596L32.7271 169.998L33.3606 168.361L34.0743 166.704L34.8447 165.045L35.6489 163.402L36.4657 161.788L37.2752 160.215L38.0598 158.694L38.8036 157.232L39.4928 155.834L40.1154 154.505L40.661 153.247L41.1211 152.061L41.4881 150.947L41.7559 149.905L41.9192 148.932L41.9736 148.027L41.9156 147.187L41.7421 146.408L41.4506 145.688L41.0394 145.023L40.507 144.409L39.8527 143.842L39.0763 143.317L38.1785 142.83L37.1608 142.375L36.0258 141.949L34.7773 141.546L33.421 141.159L31.9639 140.782L30.4156 140.41L28.7876 140.035L27.0944 139.65L25.3532 139.249L23.584 138.824L21.8099 138.367L20.0567 137.871L18.3526 137.331L16.7275 136.74L15.2122 136.093L13.8377 135.387L12.6334 134.62L11.6262 133.792L10.839 132.903L10.2896 131.959L9.98941 130.963L9.94325 129.923L10.1487 128.846L10.5963 127.742L11.2704 126.62L12.1498 125.488L13.2088 124.357L14.4192 123.234L15.7505 122.125L17.1721 121.038L18.654 119.977L20.1674 118.945L21.6859 117.944L23.1854 116.975L24.6446 116.039L26.045 115.133L27.3709 114.258L28.609 113.409L29.7484 112.584L30.7802 111.78L31.6976 110.994L32.495 110.221L33.1682 109.458L33.7143 108.7L34.1311 107.944L34.4172 107.185L34.5721 106.419L34.5957 105.643L34.4885 104.851L34.2518 104.04L33.8873 103.207L33.3976 102.346L32.7861 101.456L32.0571 100.532L31.2164 99.5719L30.271 98.573L29.2295 97.5334L28.1024 96.452L26.9027 95.3285L25.6451 94.1634L24.3475 92.9588L23.0299 91.7178L21.7149 90.445L20.4278 89.1468L19.1955 87.8309L18.0465 86.5067L17.0101 85.1851L16.115 83.8781L15.3886 82.5985L14.8557 81.3596L14.5369 80.1743L14.4479 79.0551L14.5985 78.0127L14.9918 77.0562L15.6242 76.1921L16.4853 75.4246L17.5588 74.7548L18.8233 74.181L20.2534 73.6991L21.821 73.3026L23.4966 72.9831L25.2503 72.7308L27.0533 72.535L28.8784 72.3844L30.7005 72.2675L32.4974 72.173L34.2496 72.0901L35.9406 72.0083L37.5566 71.918L39.0865 71.8103L40.5214 71.6769L41.8548 71.5105L43.0816 71.304L44.1987 71.0514L45.2039 70.747L46.0963 70.3856L46.8758 69.9624L47.5432 69.473L48.0997 68.9135L48.5471 68.2801L48.8879 67.5694L49.1248 66.7784L49.2613 65.9046L49.301 64.9458L49.2486 63.9003L49.1091 62.7673L48.8887 61.5468L48.5941 60.2397L48.2335 58.8481L47.816 57.3759L47.3525 55.8284L46.8549 54.213L46.3371 52.5391L45.8142 50.8188L45.3032 49.0666L44.8222 47.2994L44.3904 45.5368L44.0277 43.8004L43.754 42.1138L43.5889 40.5015L43.5501 38.9884L43.6535 37.5989L43.9119 36.3555L44.3341 35.2779L44.9249 34.3821L45.6841 33.6792L46.6069 33.1751L47.6839 32.8703L48.9018 32.7594L50.2438 32.8322L51.6906 33.0736L53.2214 33.4651L54.8149 33.9853L56.4498 34.6115L58.1062 35.3197L59.7652 36.0864L61.4104 36.8887L63.0271 37.7052L64.6032 38.516L66.1287 39.3032L67.5959 40.0508L68.9989 40.7448L70.3335 41.373L71.5973 41.9252L72.7891 42.3923L73.9086 42.767L74.9567 43.0429L75.9349 43.2147L76.8454 43.2779L77.6907 43.229L78.474 43.0647L79.1984 42.7828L79.8678 42.3811L80.4859 41.8584L81.0569 41.2138L81.585 40.4472L82.075 39.559L82.5315 38.5507L82.9597 37.4249L83.365 36.1853L83.7531 34.8373L84.1302 33.388L84.5026 31.8465L84.877 30.2244L85.2604 28.5358L85.6601 26.7977L86.0834 25.0299L86.5375 23.2553L87.0296 21.4995L87.5661 19.7903L88.1531 18.1578L88.7953 16.6326L89.4965 15.2458L90.2587 14.0269L91.0823 13.0031L91.9659 12.1976L92.9062 11.6288L93.8981 11.3085L94.9349 11.2421L96.0089 11.4278L97.1111 11.8566L98.2324 12.5134L99.3633 13.3773L100.495 14.4231L101.619 15.6224L102.729 16.9452L103.818 18.3608L104.882 19.8389L105.916 21.3509L106.92 22.8698L107.891 24.3717L108.83 25.8348L109.738 27.2405L110.616 28.5729L111.466 29.8184L112.293 30.966L113.098 32.0067L113.886 32.9334L114.66 33.7405L115.423 34.4238L116.181 34.9801L116.938 35.4072L117.696 35.7038L118.461 35.8691L119.237 35.9031L120.027 35.8064L120.836 35.5799L121.668 35.2255L122.526 34.7456L123.414 34.1437L124.335 33.4239L125.292 32.5918L126.288 31.6544L127.324 30.6202L128.402 29.4995L129.522 28.305L130.684 27.0515L131.886 25.7564L133.124 24.4395L134.394 23.1234L135.691 21.8331L137.006 20.5954L138.33 19.4387L139.652 18.3923L140.961 17.4849L142.243 16.7442L143.485 16.195L144.675 15.8585L145.8 15.7508L146.849 15.8821L147.813 16.2561L148.684 16.8697L149.46 17.7131L150.137 18.7705L150.719 20.0207L151.208 21.4386L151.611 22.9963L151.936 24.6644L152.193 26.4129L152.393 28.2131L152.547 30.0373L152.666 31.8606L152.762 33.6602L152.845 35.4166L152.927 37.113L153.016 38.7355L153.122 40.2725L153.253 41.7153L153.417 43.057L153.62 44.2925L153.868 45.4184L154.169 46.4325L154.525 47.3339L154.943 48.1224L155.427 48.7987L155.981 49.3639L156.609 49.82L157.313 50.1692L158.097 50.4143L158.965 50.5585L159.917 50.6058L160.955 50.5606L162.081 50.4278L163.295 50.2136L164.595 49.9246L165.98 49.5689L167.446 49.1557L168.988 48.6954L170.598 48.2L172.268 47.6833L173.985 47.1602L175.735 46.6476L177.502 46.1635L179.265 45.727L181.005 45.3581L182.696 45.0766L184.315 44.9021L185.837 44.8527L187.237 44.9443L188.493 45.1899L189.584 45.5989L190.495 46.1762L191.214 46.9221L191.734 47.8321L192.054 48.8973L192.18 50.1046L192.122 51.4374L191.893 52.8765L191.513 54.4015L191.002 55.9907L190.383 57.6232L189.681 59.2785L188.918 60.938L188.118 62.5848L187.302 64.2042L186.49 65.784L185.7 67.3139L184.949 68.7859L184.25 70.1942L183.616 71.5344L183.058 72.8039L182.583 74.0014L182.201 75.1267L181.917 76.1804L181.737 77.1641L181.665 78.0799L181.705 78.9303L181.86 79.7184L182.132 80.4474L182.524 81.1211L183.037 81.7431L183.672 82.3177L184.429 82.8491L185.308 83.3419L186.306 83.8008L187.423 84.2311L188.654 84.638L189.993 85.0273L191.435 85.405L192.969 85.7775L194.586 86.1515L196.269 86.534L198.004 86.9321L199.77 87.3532L201.545 87.8047L203.304 88.2935L205.018 88.8263L206.657 89.409L208.192 90.0467L209.591 90.7431L210.825 91.5004L211.865 92.3191L212.688 93.198L213.277 94.1339L213.617 95.122L213.704 96.1555L213.538 97.2269L213.128 98.3272L212.489 99.4473L211.64 100.578L210.608 101.71L209.42 102.835L208.106 103.946L206.696 105.037L205.222 106.103L203.712 107.14L202.192 108.146L200.688 109.119L199.222 110.061L197.811 110.971L196.472 111.851L195.219 112.704L194.063 113.533L193.014 114.339L192.078 115.128L191.261 115.903L190.568 116.668L190.001 117.426L189.564 118.182L189.257 118.94L189.081 119.705L189.053 119.95Z" fill="#FFFFEE"/>
<path fill-rule="evenodd" clip-rule="evenodd" d="M186.416 115.701L186.414 116.48L186.541 117.275L186.799 118.089L187.183 118.927L187.693 119.791L188.323 120.687L189.07 121.616L189.928 122.583L190.89 123.588L191.946 124.634L193.085 125.722L194.295 126.852L195.56 128.024L196.863 129.235L198.181 130.481L199.494 131.758L200.774 133.06L201.995 134.378L203.128 135.702L204.144 137.022L205.014 138.326L205.711 139.6L206.211 140.831L206.494 142.007L206.545 143.114L206.356 144.144L205.924 145.086L205.255 145.935L204.358 146.687L203.253 147.341L201.96 147.9L200.506 148.368L198.92 148.751L197.23 149.059L195.466 149.302L193.658 149.49L191.832 149.634L190.012 149.747L188.221 149.839L186.478 149.921L184.798 150.003L183.195 150.096L181.679 150.207L180.26 150.345L178.944 150.518L177.734 150.731L176.635 150.991L175.647 151.305L174.773 151.676L174.011 152.109L173.362 152.609L172.823 153.18L172.392 153.826L172.068 154.549L171.848 155.353L171.727 156.24L171.702 157.213L171.769 158.272L171.922 159.419L172.154 160.654L172.46 161.974L172.83 163.379L173.256 164.864L173.726 166.423L174.228 168.048L174.747 169.73L175.269 171.457L175.777 173.212L176.251 174.98L176.674 176.74L177.023 178.47L177.281 180.147L177.427 181.745L177.444 183.24L177.317 184.607L177.033 185.826L176.584 186.875L175.966 187.741L175.181 188.413L174.233 188.885L173.132 189.158L171.893 189.239L170.533 189.138L169.072 188.872L167.529 188.458L165.928 187.919L164.288 187.279L162.63 186.56L160.972 185.786L159.331 184.98L157.72 184.163L156.151 183.355L154.634 182.573L153.177 181.833L151.785 181.149L150.461 180.532L149.209 179.993L148.029 179.54L146.921 179.18L145.884 178.921L144.917 178.766L144.017 178.72L143.181 178.787L142.408 178.97L141.692 179.271L141.031 179.692L140.421 180.234L139.857 180.898L139.335 181.684L138.851 182.592L138.4 183.619L137.975 184.763L137.573 186.02L137.187 187.385L136.811 188.85L136.439 190.405L136.064 192.039L135.678 193.736L135.275 195.48L134.848 197.251L134.388 199.024L133.889 200.775L133.345 202.474L132.749 204.091L132.098 205.596L131.387 206.958L130.615 208.148L129.782 209.138L128.889 209.907L127.94 210.437L126.941 210.717L125.897 210.743L124.818 210.518L123.712 210.052L122.589 209.36L121.457 208.466L120.326 207.393L119.204 206.172L118.097 204.833L117.012 203.405L115.953 201.92L114.923 200.405L113.924 198.887L112.958 197.39L112.025 195.935L111.122 194.54L110.248 193.221L109.401 191.99L108.578 190.859L107.776 189.836L106.991 188.928L106.219 188.14L105.457 187.477L104.699 186.941L103.943 186.535L103.184 186.259L102.417 186.115L101.639 186.102L100.846 186.219L100.034 186.466L99.1982 186.841L98.3356 187.34L97.4426 187.961L96.516 188.699L95.5529 189.549L94.5508 190.502L93.5079 191.551L92.4231 192.684L91.2962 193.889L90.128 195.15L88.9203 196.45L87.6766 197.769L86.4016 199.082L85.1016 200.366L83.7846 201.593L82.4603 202.734L81.1394 203.76L79.8341 204.643L78.5572 205.355L77.3221 205.871L76.1417 206.172L75.0282 206.242L73.9924 206.073L73.043 205.66L72.1866 205.009L71.4268 204.13L70.7647 203.041L70.1984 201.762L69.7236 200.32L69.3335 198.743L69.0198 197.06L68.7724 195.301L68.5806 193.495L68.4331 191.67L68.3184 189.849L68.2253 188.055L68.1428 186.307L68.0606 184.621L67.9693 183.012L67.8598 181.489L67.7241 180.062L67.5547 178.737L67.3448 177.519L67.0883 176.411L66.7795 175.414L66.4133 174.531L65.985 173.76L65.4902 173.102L64.9249 172.554L64.2855 172.115L63.5685 171.783L62.7711 171.554L61.8906 171.426L60.9249 171.393L59.8724 171.453L58.7325 171.599L57.505 171.826L56.1911 172.126L54.793 172.491L53.3145 172.913L51.7613 173.38L50.1408 173.879L48.4628 174.398L46.7394 174.921L44.9854 175.43L43.2178 175.908L41.4565 176.335L39.7232 176.691L38.0416 176.957L36.4362 177.113L34.9322 177.141L33.5535 177.025L32.3226 176.754L31.2589 176.319L30.3781 175.714L29.6909 174.942L29.2028 174.006L28.9137 172.918L28.8179 171.689L28.9047 170.338L29.1587 168.884L29.5613 167.347L30.0908 165.75L30.7244 164.112L31.4381 162.455L32.2085 160.797L33.0127 159.153L33.8294 157.539L34.639 155.967L35.4236 154.446L36.1674 152.983L36.8566 151.586L37.4791 150.257L38.0248 148.999L38.4849 147.813L38.8519 146.699L39.1196 145.656L39.2829 144.684L39.3374 143.778L39.2793 142.938L39.1058 142.16L38.8144 141.44L38.4032 140.775L37.8708 140.16L37.2165 139.593L36.4401 139.068L35.5423 138.581L34.5246 138.127L33.3895 137.701L32.1411 137.297L30.7847 136.91L29.3277 136.533L27.7793 136.161L26.1514 135.786L24.4582 135.402L22.717 135.001L20.9478 134.575L19.1737 134.118L17.4205 133.623L15.7164 133.082L14.0912 132.491L12.576 131.844L11.2015 131.138L9.99715 130.371L8.98994 129.543L8.20276 128.655L7.65332 127.71L7.35317 126.714L7.30702 125.674L7.51244 124.598L7.96007 123.494L8.63417 122.371L9.51352 121.24L10.5726 120.108L11.7829 118.985L13.1143 117.877L14.5359 116.79L16.0177 115.728L17.5312 114.696L19.0496 113.695L20.5491 112.727L22.0083 111.79L23.4088 110.885L24.7346 110.009L25.9727 109.16L27.1121 108.336L28.144 107.532L29.0614 106.745L29.8588 105.973L30.532 105.209L31.0781 104.452L31.4949 103.695L31.781 102.937L31.9359 102.171L31.9595 101.394L31.8523 100.602L31.6156 99.7916L31.2511 98.958L30.7614 98.0977L30.1498 97.2073L29.4209 96.2834L28.5802 95.3233L27.6347 94.3244L26.5932 93.2848L25.4662 92.2034L24.2664 91.0798L23.0089 89.9148L21.7113 88.7102L20.3936 87.4692L19.0787 86.1964L17.7915 84.8982L16.5592 83.5822L15.4103 82.2581L14.3738 80.9365L13.4788 79.6294L12.7524 78.3499L12.2195 77.1109L11.9007 75.9257L11.8117 74.8064L11.9623 73.7641L12.3556 72.8075L12.9879 71.9435L13.849 71.176L14.9225 70.5062L16.1871 69.9324L17.6172 69.4505L19.1848 69.0539L20.8603 68.7344L22.6141 68.4822L24.4171 68.2864L26.2421 68.1358L28.0643 68.0189L29.8612 67.9244L31.6134 67.8414L33.3044 67.7597L34.9204 67.6694L36.4502 67.5617L37.8852 67.4283L39.2185 67.2618L40.4454 67.0554L41.5625 66.8028L42.5677 66.4984L43.4601 66.137L44.2396 65.7138L44.907 65.2244L45.4634 64.6649L45.9109 64.0314L46.2517 63.3208L46.4886 62.5298L46.625 61.656L46.6648 60.6972L46.6124 59.6517L46.4729 58.5187L46.2524 57.2982L45.9579 55.991L45.5972 54.5995L45.1798 53.1273L44.7163 51.5798L44.2187 49.9643L43.7009 48.2905L43.178 46.5702L42.667 44.818L42.1859 43.0508L41.7541 41.2882L41.3914 39.5518L41.1178 37.8652L40.9526 36.2529L40.9139 34.7398L41.0173 33.3503L41.2757 32.1069L41.6979 31.0293L42.2887 30.1334L43.0478 29.4305L43.9706 28.9265L45.0477 28.6217L46.2656 28.5108L47.6076 28.5835L49.0543 28.8249L50.5852 29.2164L52.1786 29.7367L53.8136 30.3628L55.4699 31.071L57.129 31.8377L58.7741 32.6401L60.3908 33.4566L61.967 34.2674L63.4925 35.0546L64.9597 35.8021L66.3626 36.4961L67.6973 37.1244L68.9611 37.6766L70.1528 38.1437L71.2724 38.5184L72.3205 38.7943L73.2987 38.966L74.2091 39.0293L75.0545 38.9803L75.8377 38.8161L76.5622 38.5341L77.2316 38.1325L77.8497 37.6098L78.4207 36.9652L78.9488 36.1985L79.4387 35.3104L79.8952 34.3021L80.3234 33.1763L80.7288 31.9367L81.1169 30.5887L81.494 29.1394L81.8663 27.5979L82.2407 25.9758L82.6242 24.2872L83.0239 22.5491L83.4471 20.7813L83.9013 19.0067L84.3933 17.2508L84.9299 15.5417L85.5169 13.9091L86.1591 12.384L86.8603 10.9971L87.6225 9.77825L88.4461 8.75445L89.3296 7.94902L90.2699 7.38014L91.2618 7.05987L92.2987 6.99348L93.3727 7.17913L94.4749 7.60797L95.5961 8.26474L96.7271 9.12864L97.8589 10.1744L98.9832 11.3738L100.093 12.6966L101.182 14.1122L102.245 15.5903L103.28 17.1022L104.283 18.6212L105.255 20.123L106.194 21.5862L107.101 22.9919L107.979 24.3242L108.83 25.5697L109.657 26.7174L110.462 27.7581L111.25 28.6848L112.023 29.4919L112.787 30.1752L113.545 30.7315L114.301 31.1586L115.06 31.4552L115.825 31.6205L116.601 31.6545L117.391 31.5577L118.2 31.3313L119.032 30.9769L119.89 30.497L120.778 29.895L121.699 29.1753L122.656 28.3432L123.652 27.4058L124.688 26.3716L125.766 25.2509L126.886 24.0564L128.048 22.8029L129.25 21.5077L130.488 20.1909L131.758 18.8748L133.055 17.5845L134.37 16.3468L135.693 15.1901L137.016 14.1437L138.324 13.2363L139.607 12.4955L140.849 11.9464L142.039 11.6099L143.164 11.5022L144.213 11.6335L145.177 12.0075L146.048 12.6211L146.823 13.4645L147.501 14.5218L148.082 15.772L148.571 17.19L148.974 18.7477L149.3 20.4157L149.557 22.1643L149.757 23.9644L149.911 25.7887L150.03 27.6119L150.126 29.4116L150.209 31.168L150.291 32.8644L150.38 34.4868L150.486 36.0239L150.617 37.4667L150.781 38.8084L150.984 40.0438L151.232 41.1697L151.532 42.1839L151.889 43.0853L152.307 43.8738L152.791 44.5501L153.345 45.1153L153.972 45.5714L154.677 45.9205L155.461 46.1656L156.328 46.3099L157.28 46.3572L158.319 46.3119L159.445 46.1792L160.658 45.9649L161.959 45.676L163.344 45.3203L164.81 44.907L166.351 44.4467L167.962 43.9514L169.631 43.4346L171.348 42.9116L173.099 42.399L174.865 41.9148L176.629 41.4784L178.368 41.1094L180.06 40.828L181.679 40.6535L183.201 40.6041L184.601 40.6957L185.857 40.9413L186.948 41.3503L187.859 41.9275L188.578 42.6734L189.098 43.5835L189.418 44.6487L189.544 45.856L189.486 47.1887L189.257 48.6279L188.877 50.1528L188.366 51.7421L187.747 53.3745L187.045 55.0299L186.282 56.6893L185.481 58.3362L184.665 59.9556L183.853 61.5354L183.064 63.0652L182.313 64.5373L181.614 65.9456L180.98 67.2858L180.421 68.5553L179.947 69.7528L179.565 70.878L179.281 71.9318L179.101 72.9155L179.029 73.8313L179.068 74.6817L179.223 75.4698L179.496 76.1988L179.888 76.8724L180.401 77.4945L181.036 78.069L181.793 78.6004L182.671 79.0932L183.67 79.5522L184.787 79.9825L186.017 80.3894L187.357 80.7787L188.799 81.1564L190.333 81.5289L191.949 81.9029L193.633 82.2854L195.368 82.6835L197.134 83.1046L198.909 83.556L200.668 84.0448L202.381 84.5776L204.021 85.1604L205.556 85.7981L206.955 86.4944L208.188 87.2517L209.229 88.0705L210.052 88.9494L210.64 89.8853L210.981 90.8733L211.067 91.9069L210.902 92.9782L210.492 94.0785L209.852 95.1986L209.004 96.3292L207.972 97.4612L206.783 98.5864L205.469 99.6975L204.06 100.788L202.586 101.854L201.076 102.891L199.556 103.897L198.052 104.871L196.585 105.812L195.174 106.722L193.836 107.603L192.583 108.456L191.427 109.284L190.378 110.091L189.442 110.88L188.625 111.654L187.931 112.419L187.365 113.177L186.928 113.933L186.621 114.692L186.445 115.456L186.416 115.701Z" fill="#F05D5E"/>
<path d="M186.416 115.701V115.701ZM186.416 115.701L186.414 116.48L186.541 117.275L186.799 118.089L187.183 118.927L187.693 119.791L188.323 120.687L189.07 121.616L189.928 122.583L190.89 123.588L191.946 124.634L193.085 125.722L194.295 126.852L195.56 128.024L196.863 129.235L198.181 130.481L199.494 131.758L200.774 133.06L201.995 134.378L203.128 135.702L204.144 137.022L205.014 138.326L205.711 139.6L206.211 140.831L206.494 142.007L206.545 143.114L206.356 144.144L205.924 145.086L205.255 145.935L204.358 146.687L203.253 147.341L201.96 147.9L200.506 148.368L198.92 148.751L197.23 149.059L195.466 149.302L193.658 149.49L191.832 149.634L190.012 149.747L188.221 149.839L186.478 149.921L184.798 150.003L183.195 150.096L181.679 150.207L180.26 150.345L178.944 150.518L177.734 150.731L176.635 150.991L175.647 151.305L174.773 151.676L174.011 152.109L173.362 152.609L172.823 153.18L172.392 153.826L172.068 154.549L171.848 155.353L171.727 156.24L171.702 157.213L171.769 158.272L171.922 159.419L172.154 160.654L172.46 161.974L172.83 163.379L173.256 164.864L173.726 166.423L174.228 168.048L174.747 169.73L175.269 171.457L175.777 173.212L176.251 174.98L176.674 176.74L177.023 178.47L177.281 180.147L177.427 181.745L177.444 183.24L177.317 184.607L177.033 185.826L176.584 186.875L175.966 187.741L175.181 188.413L174.233 188.885L173.132 189.158L171.893 189.239L170.533 189.138L169.072 188.872L167.529 188.458L165.928 187.919L164.288 187.279L162.63 186.56L160.972 185.786L159.331 184.98L157.72 184.163L156.151 183.355L154.634 182.573L153.177 181.833L151.785 181.149L150.461 180.532L149.209 179.993L148.029 179.54L146.921 179.18L145.884 178.921L144.917 178.766L144.017 178.72L143.181 178.787L142.408 178.97L141.692 179.271L141.031 179.692L140.421 180.234L139.857 180.898L139.335 181.684L138.851 182.592L138.4 183.619L137.975 184.763L137.573 186.02L137.187 187.385L136.811 188.85L136.439 190.405L136.064 192.039L135.678 193.736L135.275 195.48L134.848 197.251L134.388 199.024L133.889 200.775L133.345 202.474L132.749 204.091L132.098 205.596L131.387 206.958L130.615 208.148L129.782 209.138L128.889 209.907L127.94 210.437L126.941 210.717L125.897 210.743L124.818 210.518L123.712 210.052L122.589 209.36L121.457 208.466L120.326 207.393L119.204 206.172L118.097 204.833L117.012 203.405L115.953 201.92L114.923 200.405L113.924 198.887L112.958 197.39L112.025 195.935L111.122 194.54L110.248 193.221L109.401 191.99L108.578 190.859L107.776 189.836L106.991 188.928L106.219 188.14L105.457 187.477L104.699 186.941L103.943 186.535L103.184 186.259L102.417 186.115L101.639 186.102L100.846 186.219L100.034 186.466L99.1982 186.841L98.3356 187.34L97.4426 187.961L96.516 188.699L95.5529 189.549L94.5508 190.502L93.5079 191.551L92.4231 192.684L91.2962 193.889L90.128 195.15L88.9203 196.45L87.6766 197.769L86.4016 199.082L85.1016 200.366L83.7847 201.593L82.4603 202.734L81.1394 203.76L79.8341 204.643L78.5572 205.355L77.3221 205.871L76.1417 206.172L75.0282 206.242L73.9924 206.073L73.043 205.66L72.1866 205.009L71.4268 204.13L70.7647 203.041L70.1984 201.762L69.7236 200.32L69.3335 198.743L69.0198 197.06L68.7724 195.301L68.5806 193.495L68.4331 191.67L68.3184 189.849L68.2253 188.055L68.1428 186.307L68.0606 184.621L67.9693 183.012L67.8598 181.489L67.7241 180.062L67.5547 178.737L67.3448 177.519L67.0883 176.411L66.7795 175.414L66.4133 174.531L65.985 173.76L65.4902 173.102L64.9249 172.554L64.2855 172.115L63.5685 171.783L62.7711 171.554L61.8905 171.426L60.9249 171.393L59.8724 171.453L58.7325 171.599L57.505 171.826L56.1911 172.126L54.793 172.491L53.3145 172.913L51.7613 173.38L50.1408 173.879L48.4628 174.398L46.7394 174.921L44.9854 175.43L43.2178 175.908L41.4565 176.335L39.7232 176.691L38.0416 176.957L36.4362 177.113L34.9322 177.141L33.5535 177.025L32.3226 176.754L31.259 176.319L30.3781 175.714L29.6909 174.942L29.2028 174.006L28.9137 172.918L28.8179 171.689L28.9047 170.338L29.1587 168.884L29.5613 167.347L30.0908 165.75L30.7244 164.112L31.4381 162.455L32.2085 160.796L33.0127 159.153L33.8294 157.539L34.639 155.967L35.4236 154.446L36.1674 152.983L36.8566 151.586L37.4791 150.257L38.0248 148.999L38.4849 147.813L38.8519 146.699L39.1196 145.656L39.2829 144.684L39.3374 143.778L39.2793 142.938L39.1058 142.16L38.8144 141.44L38.4032 140.775L37.8708 140.16L37.2165 139.593L36.4401 139.068L35.5423 138.581L34.5246 138.127L33.3895 137.701L32.1411 137.297L30.7847 136.91L29.3277 136.533L27.7793 136.161L26.1514 135.786L24.4582 135.402L22.717 135.001L20.9478 134.575L19.1737 134.118L17.4205 133.623L15.7164 133.082L14.0912 132.491L12.576 131.844L11.2015 131.138L9.99715 130.371L8.98995 129.543L8.20276 128.655L7.65332 127.71L7.35317 126.714L7.30702 125.674L7.51244 124.598L7.96007 123.494L8.63417 122.371L9.51352 121.24L10.5726 120.108L11.7829 118.985L13.1143 117.877L14.5359 116.79L16.0177 115.728L17.5312 114.696L19.0496 113.695L20.5491 112.727L22.0083 111.79L23.4088 110.885L24.7346 110.009L25.9727 109.16L27.1121 108.336L28.144 107.532L29.0614 106.745L29.8588 105.973L30.532 105.209L31.0781 104.452L31.4949 103.695L31.781 102.937L31.9359 102.171L31.9595 101.394L31.8523 100.602L31.6156 99.7916L31.2511 98.958L30.7614 98.0977L30.1498 97.2073L29.4209 96.2834L28.5802 95.3233L27.6347 94.3244L26.5932 93.2848L25.4662 92.2034L24.2664 91.0798L23.0089 89.9148L21.7113 88.7102L20.3936 87.4692L19.0787 86.1964L17.7915 84.8982L16.5592 83.5822L15.4103 82.2581L14.3738 80.9365L13.4788 79.6294L12.7524 78.3499L12.2195 77.1109L11.9007 75.9257L11.8117 74.8064L11.9623 73.7641L12.3556 72.8075L12.9879 71.9435L13.849 71.176L14.9225 70.5062L16.1871 69.9324L17.6172 69.4505L19.1848 69.0539L20.8603 68.7344L22.6141 68.4822L24.4171 68.2864L26.2421 68.1358L28.0643 68.0189L29.8612 67.9244L31.6134 67.8414L33.3044 67.7597L34.9204 67.6694L36.4502 67.5616L37.8852 67.4283L39.2185 67.2618L40.4454 67.0554L41.5625 66.8028L42.5677 66.4984L43.4601 66.137L44.2396 65.7138L44.907 65.2244L45.4634 64.6649L45.9109 64.0314L46.2517 63.3208L46.4886 62.5298L46.625 61.656L46.6648 60.6971L46.6124 59.6517L46.4729 58.5187L46.2524 57.2982L45.9579 55.991L45.5972 54.5995L45.1798 53.1273L44.7163 51.5798L44.2187 49.9643L43.7009 48.2905L43.178 46.5702L42.667 44.818L42.1859 43.0508L41.7541 41.2882L41.3914 39.5518L41.1178 37.8652L40.9526 36.2529L40.9139 34.7398L41.0173 33.3503L41.2757 32.1069L41.6979 31.0293L42.2887 30.1334L43.0478 29.4305L43.9706 28.9265L45.0477 28.6217L46.2656 28.5108L47.6076 28.5835L49.0543 28.8249L50.5852 29.2164L52.1786 29.7367L53.8136 30.3628L55.4699 31.071L57.129 31.8377L58.7741 32.6401L60.3908 33.4566L61.967 34.2674L63.4925 35.0545L64.9597 35.8021L66.3626 36.4961L67.6973 37.1244L68.9611 37.6766L70.1528 38.1437L71.2724 38.5184L72.3205 38.7943L73.2987 38.966L74.2091 39.0293L75.0545 38.9803L75.8377 38.8161L76.5622 38.5341L77.2316 38.1325L77.8497 37.6098L78.4207 36.9652L78.9488 36.1985L79.4387 35.3104L79.8952 34.3021L80.3234 33.1763L80.7288 31.9367L81.1169 30.5887L81.494 29.1394L81.8663 27.5979L82.2407 25.9758L82.6242 24.2872L83.0239 22.5491L83.4471 20.7813L83.9013 19.0067L84.3933 17.2508L84.9299 15.5417L85.5169 13.9091L86.1591 12.384L86.8603 10.9971L87.6225 9.77825L88.4461 8.75445L89.3296 7.94902L90.2699 7.38014L91.2618 7.05987L92.2987 6.99348L93.3727 7.17913L94.4749 7.60797L95.5961 8.26474L96.7271 9.12864L97.8589 10.1744L98.9832 11.3738L100.093 12.6966L101.182 14.1122L102.245 15.5903L103.28 17.1022L104.283 18.6212L105.255 20.123L106.194 21.5862L107.101 22.9919L107.979 24.3242L108.83 25.5697L109.657 26.7174L110.462 27.7581L111.25 28.6848L112.023 29.4919L112.787 30.1752L113.545 30.7315L114.301 31.1586L115.06 31.4552L115.825 31.6205L116.601 31.6545L117.391 31.5577L118.2 31.3313L119.032 30.9769L119.89 30.497L120.778 29.895L121.699 29.1753L122.656 28.3432L123.652 27.4058L124.688 26.3716L125.766 25.2509L126.886 24.0564L128.048 22.8029L129.25 21.5077L130.488 20.1909L131.758 18.8748L133.055 17.5845L134.37 16.3468L135.693 15.1901L137.016 14.1437L138.324 13.2363L139.607 12.4956L140.849 11.9464L142.039 11.6099L143.164 11.5022L144.213 11.6335L145.177 12.0075L146.048 12.6211L146.823 13.4645L147.501 14.5218L148.082 15.772L148.571 17.19L148.974 18.7477L149.3 20.4157L149.557 22.1643L149.757 23.9644L149.911 25.7887L150.03 27.6119L150.126 29.4116L150.209 31.168L150.291 32.8644L150.38 34.4868L150.486 36.0239L150.617 37.4667L150.781 38.8084L150.984 40.0438L151.232 41.1697L151.532 42.1839L151.889 43.0853L152.307 43.8738L152.791 44.5501L153.345 45.1153L153.972 45.5714L154.677 45.9205L155.461 46.1656L156.328 46.3099L157.28 46.3572L158.319 46.3119L159.445 46.1792L160.658 45.9649L161.959 45.676L163.344 45.3203L164.81 44.907L166.351 44.4467L167.962 43.9514L169.631 43.4346L171.348 42.9116L173.099 42.399L174.865 41.9148L176.629 41.4784L178.368 41.1094L180.06 40.828L181.679 40.6535L183.201 40.6041L184.601 40.6957L185.857 40.9413L186.948 41.3503L187.859 41.9275L188.578 42.6734L189.098 43.5835L189.418 44.6487L189.544 45.856L189.486 47.1887L189.257 48.6279L188.877 50.1528L188.366 51.7421L187.747 53.3745L187.045 55.0299L186.282 56.6893L185.481 58.3362L184.665 59.9556L183.853 61.5354L183.064 63.0653L182.313 64.5373L181.614 65.9456L180.98 67.2858L180.421 68.5553L179.947 69.7528L179.565 70.878L179.281 71.9318L179.101 72.9155L179.029 73.8313L179.068 74.6817L179.223 75.4698L179.496 76.1988L179.888 76.8724L180.401 77.4945L181.036 78.069L181.793 78.6004L182.671 79.0932L183.67 79.5522L184.787 79.9825L186.017 80.3894L187.357 80.7787L188.799 81.1564L190.333 81.5289L191.949 81.9029L193.633 82.2854L195.368 82.6835L197.134 83.1046L198.909 83.556L200.668 84.0448L202.381 84.5776L204.021 85.1604L205.556 85.7981L206.955 86.4944L208.188 87.2517L209.229 88.0705L210.052 88.9494L210.64 89.8853L210.981 90.8733L211.067 91.9069L210.902 92.9782L210.492 94.0785L209.852 95.1986L209.004 96.3292L207.972 97.4612L206.783 98.5864L205.469 99.6975L204.06 100.788L202.586 101.854L201.076 102.891L199.556 103.897L198.052 104.871L196.585 105.812L195.174 106.722L193.836 107.603L192.583 108.456L191.427 109.284L190.378 110.091L189.442 110.88L188.625 111.654L187.931 112.419L187.365 113.177L186.928 113.933L186.621 114.692L186.445 115.456L186.416 115.701Z" stroke="#FFFFEE" stroke-width="2"/>
</svg>
